<svg xmlns="http://www.w3.org/2000/svg" xmlns:xlink="http://www.w3.org/1999/xlink" viewBox="0 0 430.9 430.9"><defs><style>.cls-1{fill:none;stroke-miterlimit:10;stroke-width:15px;stroke:url(#linear-gradient);}.cls-2{fill:url(#New_Gradient_Swatch_copy);}</style><linearGradient id="linear-gradient" y1="215.45" x2="430.9" y2="215.45" gradientUnits="userSpaceOnUse"><stop offset="0.07" stop-color="#154561"/><stop offset="1" stop-color="#267cad"/></linearGradient><linearGradient id="New_Gradient_Swatch_copy" x1="140.09" y1="345.98" x2="290.81" y2="84.93" gradientUnits="userSpaceOnUse"><stop offset="0" stop-color="#77bde6"/><stop offset="1" stop-color="#267cad"/></linearGradient></defs><g id="Layer_2" data-name="Layer 2"><g id="Layer_1-2" data-name="Layer 1"><circle class="cls-1" cx="215.45" cy="215.45" r="207.95"/><path class="cls-2" d="M331.75,108.56H296.87l-22.62,61.62L231.08,56H199.82L157.29,168.48l-21.77-59.92H99.15l40.41,106.89L99.15,322.34h34.91l22.62-61.57L199.82,375h31.26L273.61,262.4l21.8,59.94h36.34L291.34,215.45ZM207.48,122.47c1.43-4,2.71-7.87,3.8-11.65s2.07-7.63,2.92-11.61H216c.85,4,1.81,7.86,2.9,11.61s2.36,7.63,3.83,11.65l20,55.13H187.22Zm16,186c-1.46,4-2.71,7.87-3.8,11.64s-2.07,7.63-2.92,11.62h-1.81c-.85-4-1.81-7.87-2.92-11.62s-2.34-7.63-3.81-11.64l-20-55.14h55.56Zm30.81-83.84H177.7L173.85,214l2.82-7.68h76.56l3.85,10.6Z"/></g></g></svg>