<svg xmlns="http://www.w3.org/2000/svg" viewBox="0 0 438.85 97.75"><defs><style>.cls-1{fill:#267cad;}</style></defs><g id="Layer_2" data-name="Layer 2"><g id="Layer_1-2" data-name="Layer 1"><path class="cls-1" d="M30.44,0H57L87.41,97.75H64L51.33,48.26c-2.48-9.76-5.45-21.21-7.8-31.52h-.6c-2.39,10.31-5.11,21.76-7.59,31.52L22.64,97.75H0ZM20.15,57.27H66.92V74.5H20.15Z"/><path class="cls-1" d="M98.55,79.2h70.3V97.75H98.55ZM100.05,0h67.3V18.55h-67.3Zm8.78,38.15h49.74V56.7H108.83Z"/><path class="cls-1" d="M189.11,0h34.76c20.7,0,37.74,7.2,37.74,30.46,0,22.46-17,32.12-37.74,32.12H211.28V97.75H189.11Zm33,45c11.62,0,17.85-5,17.85-14.57s-6.23-12.9-17.85-12.9H211.28V45Zm13-2.45L266.3,97.75H241.56l-21.76-41Z"/><path class="cls-1" d="M279.81,79.2h22.83V18.55H279.81V0h67.78V18.55H324.76V79.2h22.83V97.75H279.81Z"/><path class="cls-1" d="M368.55,79.2h70.3V97.75h-70.3ZM370.05,0h67.3V18.55h-67.3Zm8.78,38.15h49.74V56.7H378.83Z"/></g></g></svg>