<svg xmlns="http://www.w3.org/2000/svg" viewBox="0 0 1095.55 802.54"><defs><style>.cls-1{opacity:0.04;}.cls-2{fill:#267cad;}.cls-3{fill:none;stroke:#77bde6;stroke-miterlimit:10;stroke-width:2px;}</style></defs><g id="Layer_2" data-name="Layer 2"><g id="Layer_1-2" data-name="Layer 1"><g class="cls-1"><rect class="cls-2" width="1095.55" height="802.54"/><line class="cls-3" x1="1095.55" y1="7.4" y2="7.4"/><line class="cls-3" x1="1095.55" y1="17.4" y2="17.4"/><line class="cls-3" x1="1095.55" y1="27.4" y2="27.4"/><line class="cls-3" x1="1095.55" y1="37.4" y2="37.4"/><line class="cls-3" x1="1095.55" y1="47.4" y2="47.4"/><line class="cls-3" x1="1095.55" y1="57.4" y2="57.4"/><line class="cls-3" x1="1095.55" y1="67.4" y2="67.4"/><line class="cls-3" x1="1095.55" y1="77.4" y2="77.4"/><line class="cls-3" x1="1095.55" y1="87.4" y2="87.4"/><line class="cls-3" x1="1095.55" y1="97.4" y2="97.4"/><line class="cls-3" x1="1095.55" y1="107.4" y2="107.4"/><line class="cls-3" x1="1095.55" y1="117.4" y2="117.4"/><line class="cls-3" x1="1095.55" y1="127.4" y2="127.4"/><line class="cls-3" x1="1095.55" y1="137.4" y2="137.4"/><line class="cls-3" x1="1095.55" y1="147.4" y2="147.4"/><line class="cls-3" x1="1095.55" y1="157.4" y2="157.4"/><line class="cls-3" x1="1095.55" y1="167.4" y2="167.4"/><line class="cls-3" x1="1095.55" y1="177.4" y2="177.4"/><line class="cls-3" x1="1095.55" y1="187.4" y2="187.4"/><line class="cls-3" x1="1095.55" y1="197.4" y2="197.4"/><line class="cls-3" x1="1095.55" y1="207.4" y2="207.4"/><line class="cls-3" x1="1095.55" y1="217.4" y2="217.4"/><line class="cls-3" x1="1095.55" y1="227.4" y2="227.4"/><line class="cls-3" x1="1095.55" y1="237.4" y2="237.4"/><line class="cls-3" x1="1095.55" y1="247.4" y2="247.4"/><line class="cls-3" x1="1095.55" y1="257.4" y2="257.4"/><line class="cls-3" x1="1095.55" y1="267.4" y2="267.4"/><line class="cls-3" x1="1095.55" y1="277.4" y2="277.4"/><line class="cls-3" x1="1095.55" y1="287.4" y2="287.4"/><line class="cls-3" x1="1095.55" y1="297.4" y2="297.4"/><line class="cls-3" x1="1095.55" y1="307.4" y2="307.4"/><line class="cls-3" x1="1095.55" y1="317.4" y2="317.4"/><line class="cls-3" x1="1095.55" y1="327.4" y2="327.4"/><line class="cls-3" x1="1095.55" y1="337.4" y2="337.4"/><line class="cls-3" x1="1095.55" y1="347.4" y2="347.4"/><line class="cls-3" x1="1095.55" y1="357.4" y2="357.4"/><line class="cls-3" x1="1095.55" y1="367.4" y2="367.4"/><line class="cls-3" x1="1095.55" y1="377.4" y2="377.4"/><line class="cls-3" x1="1095.55" y1="387.4" y2="387.4"/><line class="cls-3" x1="1095.55" y1="397.4" y2="397.4"/><line class="cls-3" x1="1095.55" y1="407.4" y2="407.4"/><line class="cls-3" x1="1095.55" y1="417.4" y2="417.4"/><line class="cls-3" x1="1095.55" y1="427.4" y2="427.4"/><line class="cls-3" x1="1095.55" y1="437.4" y2="437.4"/><line class="cls-3" x1="1095.55" y1="447.4" y2="447.4"/><line class="cls-3" x1="1095.55" y1="457.4" y2="457.4"/><line class="cls-3" x1="1095.55" y1="467.4" y2="467.4"/><line class="cls-3" x1="1095.55" y1="477.4" y2="477.4"/><line class="cls-3" x1="1095.55" y1="487.4" y2="487.4"/><line class="cls-3" x1="1095.55" y1="497.4" y2="497.4"/><line class="cls-3" x1="1095.55" y1="507.4" y2="507.4"/><line class="cls-3" x1="1095.55" y1="517.4" y2="517.4"/><line class="cls-3" x1="1095.55" y1="527.4" y2="527.4"/><line class="cls-3" x1="1095.55" y1="537.4" y2="537.4"/><line class="cls-3" x1="1095.55" y1="547.4" y2="547.4"/><line class="cls-3" x1="1095.55" y1="557.4" y2="557.4"/><line class="cls-3" x1="1095.55" y1="567.4" y2="567.4"/><line class="cls-3" x1="1095.55" y1="577.4" y2="577.4"/><line class="cls-3" x1="1095.55" y1="587.4" y2="587.4"/><line class="cls-3" x1="1095.55" y1="597.4" y2="597.4"/><line class="cls-3" x1="1095.55" y1="607.4" y2="607.4"/><line class="cls-3" x1="1095.55" y1="617.4" y2="617.4"/><line class="cls-3" x1="1095.55" y1="627.4" y2="627.4"/><line class="cls-3" x1="1095.55" y1="637.4" y2="637.4"/><line class="cls-3" x1="1095.55" y1="647.4" y2="647.4"/><line class="cls-3" x1="1095.55" y1="657.4" y2="657.4"/><line class="cls-3" x1="1095.55" y1="667.4" y2="667.4"/><line class="cls-3" x1="1095.55" y1="677.4" y2="677.4"/><line class="cls-3" x1="1095.55" y1="687.4" y2="687.4"/><line class="cls-3" x1="1095.55" y1="697.4" y2="697.4"/><line class="cls-3" x1="1095.55" y1="707.4" y2="707.4"/><line class="cls-3" x1="1095.55" y1="717.4" y2="717.4"/><line class="cls-3" x1="1095.55" y1="727.4" y2="727.4"/><line class="cls-3" x1="1095.55" y1="737.4" y2="737.4"/><line class="cls-3" x1="1095.55" y1="747.4" y2="747.4"/><line class="cls-3" x1="1095.55" y1="757.4" y2="757.4"/><line class="cls-3" x1="1095.55" y1="767.4" y2="767.4"/><line class="cls-3" x1="1095.55" y1="777.4" y2="777.4"/><line class="cls-3" x1="1095.55" y1="787.4" y2="787.4"/><line class="cls-3" x1="1095.55" y1="796.08" y2="796.08"/></g></g></g></svg>